# xmcd
#
# Track frame offsets:
#	150
#	15099
#	32461
#	47121
#	58872
#	75523
#	92789
#	111347
#	124423
#	140296
#	151576
#	168840
#	182505
#	198602
#	213357
#	230338
#	242842
#
# Disc length: 3463 seconds
#
# Revision: 3
# Processed by: cddbd v1.5.2PL0 Copyright (c) Steve Scherf et al.
# Submitted via: EasyCDDAExtractor 15.3.0.1
#
DISCID=d50d8511
DTITLE=The Music Of Nashville - Season 4, Volume 2
DYEAR=2016
DGENRE=Country
TTITLE0=Will Chase - Can't Say No To Love
TTITLE1=Aubrey Peeples, Jonathan Jackson - Soul Survivor
TTITLE2=Clare Bowen - Only Tennessee
TTITLE3=Jonathan Jackson - Kinda Dig The Feeling
TTITLE4=Lennon Stella, Jessy Schram - Swept Away
TTITLE5=Chris Carmack - Movin' On Never Felt So Good
TTITLE6=Charles Esten - From Here On Out
TTITLE7=Clare Bowen, Sam Palladio - The Rubble
TTITLE8=Hayden Panettiere - Hole In The World
TTITLE9=Maisy Stella - 'Til The Stars Come Out Again
TTITLE10=Aubrey Peeples - Caged Bird
TTITLE11=Hayden Panettiere - One Place Too Long
TTITLE12=Chris Carmack - Ain't It Beautiful
TTITLE13=Lennon Stella - Wild Card
TTITLE14=Will Chase, Hayden Panettiere - Boomtown
TTITLE15=Lennon and Maisy - All We Ever Wanted
TTITLE16=Connie Britton - Hold On To Me
EXTD=
EXTT0=
EXTT1=
EXTT2=
EXTT3=
EXTT4=
EXTT5=
EXTT6=
EXTT7=
EXTT8=
EXTT9=
EXTT10=
EXTT11=
EXTT12=
EXTT13=
EXTT14=
EXTT15=
EXTT16=
PLAYORDER=
